<?xml version="1.0" encoding="UTF-8" standalone="no"?>
<svg
   xmlns:dc="http://purl.org/dc/elements/1.1/"
   xmlns:cc="http://creativecommons.org/ns#"
   xmlns:rdf="http://www.w3.org/1999/02/22-rdf-syntax-ns#"
   xmlns:svg="http://www.w3.org/2000/svg"
   xmlns="http://www.w3.org/2000/svg"
   xmlns:sodipodi="http://sodipodi.sourceforge.net/DTD/sodipodi-0.dtd"
   xmlns:inkscape="http://www.inkscape.org/namespaces/inkscape"
   inkscape:version="1.0beta1 (fe3e306, 2019-09-17)"
   sodipodi:docname="logo.svg"
   height="84.800003"
   width="94.996155"
   id="svg3448"
   xml:space="preserve"
   viewBox="0 0 94.996155 84.800003"
   y="0px"
   x="0px"
   version="1.1"><sodipodi:namedview
   inkscape:snap-nodes="false"
   inkscape:current-layer="svg3448"
   inkscape:window-maximized="0"
   inkscape:window-y="23"
   inkscape:window-x="0"
   inkscape:cy="57.055172"
   inkscape:cx="-153.7931"
   inkscape:zoom="2.32"
   inkscape:pagecheckerboard="true"
   showgrid="false"
   id="namedview4094"
   inkscape:window-height="480"
   inkscape:window-width="1440"
   inkscape:pageshadow="2"
   inkscape:pageopacity="0"
   guidetolerance="10"
   gridtolerance="10"
   objecttolerance="10"
   borderopacity="1"
   inkscape:document-rotation="0"
   bordercolor="#666666"
   pagecolor="#ffffff" />
<metadata
   id="metadata3454">
  <rdf:RDF>
    <cc:Work
   rdf:about="">
      <dc:format>image/svg+xml</dc:format>


      <dc:type
   rdf:resource="http://purl.org/dc/dcmitype/StillImage" />


      <dc:title></dc:title>


    </cc:Work>


  </rdf:RDF>


</metadata>


<defs
   id="defs3452">
      
      
      
      
      
      
      
      
      
      
      
      
      
      

    </defs>




    <g
   style="fill:#ffffff"
   transform="translate(-2.5,-7.6)"
   id="g3434">
      <path
   id="path3426"
   d="m 5273.1,2400.1 v -2 c 0,-2.8 -5,-4 -9.7,-4 -4.7,0 -9.7,1.3 -9.7,4 v 2 c 0,1.8 0.7,3.6 2,4.9 l 5,4.9 c 0.3,0.3 0.4,0.6 0.4,1 v 6.4 c 0,0.4 0.2,0.7 0.6,0.8 l 2.9,0.9 c 0.5,0.1 1,-0.2 1,-0.8 v -7.2 c 0,-0.4 0.2,-0.7 0.4,-1 l 5.1,-5 c 1.3,-1.3 2,-3.1 2,-4.9 z m -9.7,-0.1 c -4.8,0 -7.4,-1.3 -7.5,-1.8 v 0 c 0.1,-0.5 2.7,-1.8 7.5,-1.8 4.8,0 7.3,1.3 7.5,1.8 -0.2,0.5 -2.7,1.8 -7.5,1.8 z"
   style="fill:#ffffff;stroke:white" />

      
      
      <path
   id="path3428"
   d="m 5268.4,2410.3 c -0.6,0 -1,0.4 -1,1 0,0.6 0.4,1 1,1 h 4.3 c 0.6,0 1,-0.4 1,-1 0,-0.6 -0.4,-1 -1,-1 z"
   style="fill:#ffffff;stroke:white" />

      
      
      <path
   id="path3430"
   d="m 5272.7,2413.7 h -4.3 c -0.6,0 -1,0.4 -1,1 0,0.6 0.4,1 1,1 h 4.3 c 0.6,0 1,-0.4 1,-1 0,-0.6 -0.4,-1 -1,-1 z"
   style="fill:#ffffff;stroke:white" />

      
      
      <path
   id="path3432"
   d="m 5272.7,2417 h -4.3 c -0.6,0 -1,0.4 -1,1 0,0.6 0.4,1 1,1 h 4.3 c 0.6,0 1,-0.4 1,-1 0,-0.5 -0.4,-1 -1,-1 z"
   style="fill:#ffffff;stroke:white" />



    </g>



    <path
   style="opacity:1;fill:#cccccc;stroke:#ffffff;stop-opacity:1"
   d="M 71.9,79 H 12.5 v -8.8 h 3.9 c 1.6,0 2.9,-1.3 2.9,-2.9 0,-1.6 -1.3,-2.9 -2.9,-2.9 H 12.5 V 53.6 h 3.9 c 1.6,0 2.9,-1.3 2.9,-2.9 0,-1.6 -1.3,-2.9 -2.9,-2.9 H 12.5 V 37 h 3.9 c 1.6,0 2.9,-1.3 2.9,-2.9 0,-1.6 -1.3,-2.9 -2.9,-2.9 H 12.5 V 20.4 h 3.9 c 1.6,0 2.9,-1.3 2.9,-2.9 0,-1.6 -1.3,-2.9 -2.9,-2.9 H 12.5 V 5.8 h 59.4 v 34.5 l 5.8,-2.5 V 4.7 C 77.7,2.1 75.6,0 73,0 H 11.5 C 8.9,0 6.8,2.1 6.8,4.7 v 9.9 H 2.9 c -1.6,0 -2.9,1.3 -2.9,2.9 0,1.6 1.3,2.9 2.9,2.9 H 6.8 V 31.2 H 2.9 C 1.3,31.2 0,32.5 0,34.1 0,35.7 1.3,37 2.9,37 H 6.8 V 47.8 H 2.9 c -1.6,0 -2.9,1.3 -2.9,2.9 0,1.6 1.3,2.9 2.9,2.9 H 6.8 V 64.4 H 2.9 c -1.6,0 -2.9,1.3 -2.9,2.9 0,1.6 1.3,2.9 2.9,2.9 h 3.9 v 9.9 c 0,2.6 2.1,4.7 4.7,4.7 h 61.6 c 2.6,0 4.7,-2.1 4.7,-4.7 V 64.7 L 72,67.2 V 79 Z"
   id="path3436"
   inkscape:connector-curvature="0" />
<rect
   style="opacity:1;fill:#d45500;stroke:#d45500;stroke-width:0.999956;stop-opacity:1"
   x="24.461935"
   y="71.285957"
   transform="rotate(-23.373139)"
   width="30.298655"
   height="13.199414"
   id="rect3438" />
<path
   style="opacity:1;fill:#ffffff;stroke:#ffffff;stop-opacity:1"
   d="m 42.1,59.8 -4.9,7.1 c -0.8,1.2 -0.1,2.8 1.3,3.1 l 8.5,1.3 c 0.4,0.1 0.7,0 1.1,-0.1 l 3,-1.3 -5.2,-12.1 -3,1.3 c -0.3,0.1 -0.6,0.4 -0.8,0.7 z"
   id="point"
   inkscape:connector-curvature="0" />
<path
   style="opacity:1;fill:#ffffff;stroke:#ffffff;stop-opacity:1"
   d="m 94.8,48.8 -3.6,-8.4 c -0.4,-1 -1.6,-1.5 -2.6,-1 l -5.4,2.3 5.2,12.1 5.4,-2.3 c 1,-0.5 1.5,-1.7 1,-2.7 z"
   id="tail"
   inkscape:connector-curvature="0" />
<path
   style="opacity:1;fill:#ffffff;stroke:#ffffff;stop-opacity:1"
   d="m 64.5,23.8 c 0,-7 -17.9,-8.8 -32.9,-9.1 -1.3,-0.1 -2.3,1 -2.3,2.2 0,1.2 1,2.3 2.2,2.3 13.4,0.3 26,2.3 28.3,4.3 -2.2,0.9 -9.4,1.1 -13.8,1.2 -10.4,0.2 -17.9,0.4 -17.9,5.2 0,4.6 7.1,5.9 16.1,7.5 2.8,0.5 6.8,1.2 8.9,1.9 -2.1,0.9 -6.4,2 -9.2,2.6 -5.2,1.2 -9.7,2.3 -11.9,4.1 -3.9,3.2 -0.9,10.1 -0.5,10.9 0.4,0.8 1.2,1.3 2,1.3 0.3,0 0.6,-0.1 0.9,-0.2 1.1,-0.5 1.6,-1.9 1.1,-3 -0.9,-2 -1.5,-5 -0.8,-5.5 1.4,-1.1 6.2,-2.3 10.1,-3.2 7.9,-1.9 13.6,-3.2 13.6,-7.2 0,-3.7 -5.4,-4.7 -13.5,-6.1 -3.6,-0.6 -10,-1.8 -11.9,-2.7 2.4,-0.8 8.9,-0.9 13,-1 10.7,-0.4 18.5,-0.6 18.5,-5.5 z"
   id="scribble"
   inkscape:connector-curvature="0" />



</svg>
