<?xml version="1.0" encoding="UTF-8" standalone="no"?>
<svg
    xmlns:dc="http://purl.org/dc/elements/1.1/"
    xmlns:cc="http://creativecommons.org/ns#"
    xmlns:rdf="http://www.w3.org/1999/02/22-rdf-syntax-ns#"
    xmlns:svg="http://www.w3.org/2000/svg"
    xmlns="http://www.w3.org/2000/svg"
    version="1.1"
    x="0px"
    y="0px"
    viewBox="0 0 94.996155 84.800003"
    xml:space="preserve"
    id="svg3448"
    width="94.996155"
    height="84.800003"><metadata
			   id="metadata3454">
  <rdf:RDF>
    <cc:Work
	rdf:about="">
      <dc:format>image/svg+xml</dc:format>

      <dc:type
	  rdf:resource="http://purl.org/dc/dcmitype/StillImage" />

      <dc:title></dc:title>

    </cc:Work>

  </rdf:RDF>

</metadata>

<g
    id="g3434"
    transform="translate(-2.5,-7.6)">
  <path style="fill:white;stroke:white" 
	d="m 5273.1,2400.1 v -2 c 0,-2.8 -5,-4 -9.7,-4 -4.7,0 -9.7,1.3 -9.7,4 v 2 c 0,1.8 0.7,3.6 2,4.9 l 5,4.9 c 0.3,0.3 0.4,0.6 0.4,1 v 6.4 c 0,0.4 0.2,0.7 0.6,0.8 l 2.9,0.9 c 0.5,0.1 1,-0.2 1,-0.8 v -7.2 c 0,-0.4 0.2,-0.7 0.4,-1 l 5.1,-5 c 1.3,-1.3 2,-3.1 2,-4.9 z m -9.7,-0.1 c -4.8,0 -7.4,-1.3 -7.5,-1.8 v 0 c 0.1,-0.5 2.7,-1.8 7.5,-1.8 4.8,0 7.3,1.3 7.5,1.8 -0.2,0.5 -2.7,1.8 -7.5,1.8 z"
	id="path3426" />
  <path style="fill:white;stroke:white" 
	d="m 5268.4,2410.3 c -0.6,0 -1,0.4 -1,1 0,0.6 0.4,1 1,1 h 4.3 c 0.6,0 1,-0.4 1,-1 0,-0.6 -0.4,-1 -1,-1 z"
	id="path3428" />
  
  
  <path style="fill:white;stroke:white" 
	d="m 5272.7,2413.7 h -4.3 c -0.6,0 -1,0.4 -1,1 0,0.6 0.4,1 1,1 h 4.3 c 0.6,0 1,-0.4 1,-1 0,-0.6 -0.4,-1 -1,-1 z"
	id="path3430" />
  
  
  <path style="fill:white;stroke:white" 
	d="m 5272.7,2417 h -4.3 c -0.6,0 -1,0.4 -1,1 0,0.6 0.4,1 1,1 h 4.3 c 0.6,0 1,-0.4 1,-1 0,-0.5 -0.4,-1 -1,-1 z"
	id="path3432" />
</g>
<g transform="translate(-2.5,-7.6)">
  <path style="fill:silver;stroke:silver" 
	d="M 74.4,86.6 H 15 v -8.8 h 3.9 c 1.6,0 2.9,-1.3 2.9,-2.9 0,-1.6 -1.3,-2.9 -2.9,-2.9 H 15 V 61.2 h 3.9 c 1.6,0 2.9,-1.3 2.9,-2.9 0,-1.6 -1.3,-2.9 -2.9,-2.9 H 15 V 44.6 h 3.9 c 1.6,0 2.9,-1.3 2.9,-2.9 0,-1.6 -1.3,-2.9 -2.9,-2.9 H 15 V 28 h 3.9 c 1.6,0 2.9,-1.3 2.9,-2.9 0,-1.6 -1.3,-2.9 -2.9,-2.9 H 15 v -8.8 h 59.4 v 34.5 l 5.8,-2.5 V 12.3 C 80.2,9.7 78.1,7.6 75.5,7.6 H 14 c -2.6,0 -4.7,2.1 -4.7,4.7 v 9.9 H 5.4 c -1.6,0 -2.9,1.3 -2.9,2.9 0,1.6 1.3,2.9 2.9,2.9 H 9.3 V 38.8 H 5.4 c -1.6,0 -2.9,1.3 -2.9,2.9 0,1.6 1.3,2.9 2.9,2.9 H 9.3 V 55.4 H 5.4 c -1.6,0 -2.9,1.3 -2.9,2.9 0,1.6 1.3,2.9 2.9,2.9 H 9.3 V 72 H 5.4 c -1.6,0 -2.9,1.3 -2.9,2.9 0,1.6 1.3,2.9 2.9,2.9 h 3.9 v 9.9 c 0,2.6 2.1,4.7 4.7,4.7 h 61.6 c 2.6,0 4.7,-2.1 4.7,-4.7 V 72.3 l -5.8,2.5 v 11.8 z"
	id="scrapbook" />
  <g
      id="pencil">
    <rect style="fill:#d45500;stroke:#d45500"
	  x="54.599998"
	  y="56.799999"
	  transform="matrix(0.9179,-0.3967,0.3967,0.9179,-19.4149,32.8549)"
	  width="30.299999"
	  height="13.2"
	  id="rect3438" />
    <path style="fill:white;stroke:white" 
	  d="m 44.6,67.4 -4.9,7.1 c -0.8,1.2 -0.1,2.8 1.3,3.1 l 8.5,1.3 c 0.4,0.1 0.7,0 1.1,-0.1 l 3,-1.3 -5.2,-12.1 -3,1.3 c -0.3,0.1 -0.6,0.4 -0.8,0.7 z"
	  id="point" />
    <path style="fill:white;stroke:white" 
	  d="M 97.3,56.4 93.7,48 c -0.4,-1 -1.6,-1.5 -2.6,-1 l -5.4,2.3 5.2,12.1 5.4,-2.3 c 1,-0.5 1.5,-1.7 1,-2.7 z"
	  id="tail" />
    <path style="fill:white;stroke:white" 
	  d="m 67,31.4 c 0,-7 -17.9,-8.8 -32.9,-9.1 -1.3,-0.1 -2.3,1 -2.3,2.2 0,1.2 1,2.3 2.2,2.3 13.4,0.3 26,2.3 28.3,4.3 -2.2,0.9 -9.4,1.1 -13.8,1.2 -10.4,0.2 -17.9,0.4 -17.9,5.2 0,4.6 7.1,5.9 16.1,7.5 2.8,0.5 6.8,1.2 8.9,1.9 -2.1,0.9 -6.4,2 -9.2,2.6 -5.2,1.2 -9.7,2.3 -11.9,4.1 -3.9,3.2 -0.9,10.1 -0.5,10.9 0.4,0.8 1.2,1.3 2,1.3 0.3,0 0.6,-0.1 0.9,-0.2 1.1,-0.5 1.6,-1.9 1.1,-3 -0.9,-2 -1.5,-5 -0.8,-5.5 C 38.6,56 43.4,54.8 47.3,53.9 55.2,52 60.9,50.7 60.9,46.7 60.9,43 55.5,42 47.4,40.6 43.8,40 37.4,38.8 35.5,37.9 37.9,37.1 44.4,37 48.5,36.9 59.2,36.5 67,36.3 67,31.4 Z"
	  id="scribble" />
  </g>
</g>
</svg>
